<svg viewBox="0 0 1280 640" width="2560px" height="1280px" xmlns="http://www.w3.org/2000/svg">
	<path fill="#080707" d="M 0 0 L 1280 0 L 1280 640 L 0 640 Z"/>
	<path fill="#5d4fad" d="M229.494 450.625 176.281 450.625 146.856 421.2 146.856 218.8 176.281 189.375 229.494 189.375 187.281 230.35 187.281 409.65 229.494 450.625ZM162.119 414.875 182.056 434.538 192.919 434.538 170.781 412.813 170.781 225.4 192.919 203.675 182.056 203.675 162.119 223.338 162.119 414.875ZM1133.144 421.2 1103.719 450.625 1050.506 450.625 1092.719 409.65 1092.719 230.35 1050.506 189.375 1103.719 189.375 1133.144 218.8 1133.144 421.2ZM1087.081 434.538 1097.944 434.538 1117.881 414.875 1117.881 223.338 1097.944 203.675 1087.081 203.675 1109.219 225.4 1109.219 412.813 1087.081 434.538Z"/>
	<path fill="#67d8ef" d="M293.981 287.413 250.806 287.413 250.806 246.988 293.981 246.988 293.981 287.413ZM293.981 395.625 250.806 395.625 250.806 355.2 293.981 355.2 293.981 395.625ZM266.756 370.875 266.756 379.95 278.169 379.95 278.169 370.875 266.756 370.875ZM266.756 262.663 266.756 271.738 278.169 271.738 278.169 262.663 266.756 262.663ZM408.931 338.288 326.156 395.9 326.156 346.4 375.931 314.5 326.156 281.913 326.156 232.55 408.931 290.713 408.931 338.288ZM341.281 356.025 341.281 365.925 397.519 328.388 397.519 301.3 341.281 263.075 341.281 272.975 390.231 305.7 390.231 323.85 341.281 356.025Z"/>
	<path fill="#e7db74" d="M550.831 265.55 522.231 265.55 515.906 241.9 515.906 203.125 557.431 203.125 557.431 241.9 550.831 265.55ZM596.206 265.55 567.606 265.55 561.281 241.9 561.281 203.125 602.806 203.125 602.806 241.9 596.206 265.55ZM532.544 240.388 534.056 252.488 539.694 252.488 541.481 240.388 541.481 217.7 532.544 217.7 532.544 240.388ZM577.919 240.388 579.431 252.488 585.069 252.488 586.856 240.388 586.856 217.7 577.919 217.7 577.919 240.388ZM977.494 265.55 948.894 265.55 942.569 241.9 942.569 203.125 984.094 203.125 984.094 241.9 977.494 265.55ZM1022.869 265.55 994.269 265.55 987.944 241.9 987.944 203.125 1029.469 203.125 1029.469 241.9 1022.869 265.55ZM959.206 240.388 960.719 252.488 966.356 252.488 968.144 240.388 968.144 217.7 959.206 217.7 959.206 240.388ZM1004.581 240.388 1006.094 252.488 1011.731 252.488 1013.519 240.388 1013.519 217.7 1004.581 217.7 1004.581 240.388Z"/>
	<path fill="#a1b558" d="M753.094 395.625 662.344 395.625 634.019 367.3 634.019 332.65 672.931 332.65 672.931 348.325 681.319 356.713 734.119 356.713 742.506 348.325 742.506 327.15 734.119 318.763 663.169 318.763 634.844 290.438 634.844 231.45 663.169 203.125 750.481 203.125 778.806 231.45 778.806 266.1 739.894 266.1 739.894 250.425 731.506 242.038 682.144 242.038 673.619 250.425 673.619 271.463 682.144 279.85 753.094 279.85 781.419 308.175 781.419 367.3 753.094 395.625ZM649.831 360.838 669.631 380.5 744.569 380.5 765.469 359.738 765.469 313.538 746.906 294.975 674.856 294.975 658.494 278.613 658.494 242.863 674.719 226.913 739.894 226.913 755.019 241.625 755.019 252.35 763.406 252.35 763.406 238.05 743.744 218.388 670.869 218.388 649.969 239.288 649.969 282.188 671.281 303.5 743.056 303.5 756.944 317.113 756.944 356.163 740.856 372.113 673.344 372.113 658.356 357.263 658.356 346.4 649.831 346.4 649.831 360.838ZM936.931 395.625 814.419 395.625 814.419 203.125 853.331 203.125 853.331 356.713 936.931 356.713 936.931 395.625ZM829.681 217.975 829.681 380.638 921.944 380.638 921.944 372.25 838.206 372.25 838.206 217.975 829.681 217.975Z"/>
</svg>
