<svg viewBox="0 0 100 100" width="4096px" height="4096px" xmlns="http://www.w3.org/2000/svg">
	<path fill="#5d4fad" d="M 0 0 L 100 0 L 100 100 L 0 100 Z"/>
	<path fill="#4f4695" d="M50.55 100 15.855 65.31 15.855 56.6 24.625 56.6 16.045 47.98 16.045 34.69 22.425 28.3 42.115 28.3 56.525 42.71 56.525 28.3 65.305 28.3 100 62.99 100 100Z"/>
	<path fill="#a5b851" d="M42.705 71.7 22.245 71.7 15.855 65.31 15.855 56.6 24.625 56.6 24.625 61.04 26.515 62.93 38.425 62.93 40.315 61.04 40.315 56.26 38.425 54.37 22.425 54.37 16.045 47.98 16.045 34.69 22.425 28.3 42.115 28.3 48.495 34.69 48.495 42.5 39.725 42.5 39.725 38.96 37.835 37.07 26.705 37.07 24.785 38.96 24.785 43.71 26.705 45.6 42.705 45.6 49.085 51.98 49.085 65.31 42.705 71.7ZM19.415 63.86 23.885 68.29 40.775 68.29 45.495 63.61 45.495 53.19 41.305 49.01 25.065 49.01 21.375 45.32 21.375 37.26 25.035 33.66 39.725 33.66 43.135 36.98 43.135 39.4 45.025 39.4 45.025 36.17 40.595 31.74 24.165 31.74 19.455 36.45 19.455 46.12 24.255 50.93 40.435 50.93 43.565 54 43.565 62.8 39.945 66.4 24.725 66.4 21.345 63.05 21.345 59.7 19.415 59.7ZM84.145 71.7 56.525 71.7 56.525 28.3 65.305 28.3 65.305 62.93 84.145 62.93 84.145 71.7ZM59.965 31.65 59.965 68.32 80.765 68.32 80.765 66.43 61.885 66.43 61.885 31.65 59.965 31.65Z"/>
</svg>
